<svg width="313" height="326" viewBox="0 0 313 326" fill="none" xmlns="http://www.w3.org/2000/svg">
<path d="M32.8601 49.71C32.2534 49.7567 31.6934 49.6167 31.1801 49.29C30.7134 49.01 30.3867 48.6367 30.2001 48.17C29.9201 47.89 29.6167 47.47 29.2901 46.91C28.9634 46.35 28.7534 45.8133 28.6601 45.3C28.4734 43.06 28.3801 41.4267 28.3801 40.4C28.3801 39.0933 28.4501 37.32 28.5901 35.08C28.7301 32.9333 28.9867 30.9267 29.3601 29.06C29.7801 27.1467 30.3401 24.8133 31.0401 22.06C31.3201 21.1733 31.5301 20.4267 31.6701 19.82C31.8101 19.1667 31.8101 18.84 31.6701 18.84C31.4367 18.8867 31.0167 19.4933 30.4101 20.66C29.8034 21.78 29.1967 22.9933 28.5901 24.3C28.3101 24.8133 28.0301 25.3733 27.7501 25.98C27.5167 26.54 27.2601 27.0767 26.9801 27.59C25.6734 30.4833 23.2701 34.87 19.7701 40.75C19.3501 41.2633 18.7667 42.08 18.0201 43.2C16.5734 45.3933 15.3834 46.91 14.4501 47.75C13.2834 48.87 12.1167 49.43 10.9501 49.43C10.1101 49.43 9.41006 49.15 8.85006 48.59C8.24339 47.8433 7.94006 47.12 7.94006 46.42C7.94006 46.2333 7.98673 45.9067 8.08006 45.44C7.94006 44.2733 8.05673 41.8933 8.43006 38.3C8.85006 34.66 9.27006 31.6267 9.69006 29.2C10.0167 26.96 10.7401 23.2733 11.8601 18.14L13.4001 10.58C13.6801 9.88 14.1234 8.48 14.7301 6.38L15.3601 4.07C15.4067 3.23 15.5934 2.62333 15.9201 2.25C16.2467 1.83 16.6434 1.62 17.1101 1.62C17.7634 1.62 18.3234 1.92333 18.7901 2.53C19.5367 3.37 19.9101 4.37333 19.9101 5.54C19.9101 6.47333 19.7001 7.43 19.2801 8.41C17.1801 13.5433 15.5001 20.31 14.2401 28.71C13.7734 31.4633 13.3301 34.4267 12.9101 37.6C12.5367 40.7267 12.4434 42.3133 12.6301 42.36C13.0034 42.4533 13.5167 42.1733 14.1701 41.52C14.8234 40.82 15.4067 39.91 15.9201 38.79C19.0934 33.5167 22.8034 26.75 27.0501 18.49C27.1434 18.35 28.1701 16.4367 30.1301 12.75L31.8101 9.6C31.9501 9.32 32.1134 9.01666 32.3001 8.69C32.5334 8.31667 32.7667 7.94333 33.0001 7.57C34.0267 5.65666 34.8201 4.23333 35.3801 3.3C35.9867 2.36666 36.4534 1.83 36.7801 1.69C37.5734 1.73666 38.2267 1.94667 38.7401 2.32C39.2534 2.64666 39.6967 3.23 40.0701 4.07C40.1167 4.30333 40.0701 4.7 39.9301 5.26C39.8367 5.77333 39.6967 6.26333 39.5101 6.73C39.4167 7.01 39.1834 7.71 38.8101 8.83C38.4834 9.95 38.2034 11.07 37.9701 12.19C37.0834 14.5233 36.4301 16.7867 36.0101 18.98C35.6834 20.66 35.3334 22.2933 34.9601 23.88C34.1667 27.4733 33.5601 30.4367 33.1401 32.77C32.7667 35.1033 32.5567 37.2033 32.5101 39.07C32.4634 41.45 32.6034 43.06 32.9301 43.9C33.0701 44.3667 33.4201 44.6 33.9801 44.6C34.4001 44.6 34.7501 44.4367 35.0301 44.11C36.3834 42.3367 37.5034 40.7733 38.3901 39.42C39.2767 38.0667 40.2334 36.4567 41.2601 34.59C44.1067 29.27 47.4901 21.9667 51.4101 12.68C52.9034 8.38667 53.9067 5.58667 54.4201 4.28C54.9801 2.97333 55.6101 2.13333 56.3101 1.76C56.5901 1.57333 56.8701 1.48 57.1501 1.48C57.6634 1.48 58.1301 1.66666 58.5501 2.04C58.7367 2.22667 58.9001 2.53 59.0401 2.95C59.2267 3.37 59.2967 3.83667 59.2501 4.35C58.7834 5.98333 57.6867 9.04 55.9601 13.52C54.2801 17.9533 52.9734 21.1733 52.0401 23.18C51.8534 23.5067 51.4801 24.1367 50.9201 25.07C50.8267 25.21 50.6167 25.56 50.2901 26.12C50.0101 26.6333 49.8701 27.03 49.8701 27.31C49.8701 27.7767 48.6334 30.2267 46.1601 34.66C43.7334 39.0467 41.9367 41.9867 40.7701 43.48C39.2301 45.44 37.6667 46.9567 36.0801 48.03C34.5401 49.15 33.4667 49.71 32.8601 49.71ZM68.3845 43.55C67.2178 44.5767 65.8178 45.09 64.1845 45.09C63.0178 45.09 61.8978 44.81 60.8245 44.25C59.7978 43.69 58.9345 42.92 58.2345 41.94C57.6278 41.1933 57.1845 40.3533 56.9045 39.42C56.6245 38.4867 56.4845 37.3433 56.4845 35.99C56.4845 35.5233 56.5312 34.59 56.6245 33.19C56.7645 31.4633 57.3245 29.6667 58.3045 27.8C59.3312 25.9333 60.5912 24.2767 62.0845 22.83C63.5778 21.3367 65.0478 20.31 66.4945 19.75C67.2412 19.2833 67.9178 19.05 68.5245 19.05C68.8512 19.05 69.1778 19.0733 69.5045 19.12C69.8312 19.1667 70.1812 19.2133 70.5545 19.26C71.5812 19.4 72.3512 19.61 72.8645 19.89C73.4245 20.1233 73.8912 20.4967 74.2645 21.01C75.4312 22.1767 76.0145 23.53 76.0145 25.07C75.8278 26.19 75.1045 27.4733 73.8445 28.92C72.5845 30.3667 71.0678 31.5333 69.2945 32.42C68.4545 32.7 67.4978 32.84 66.4245 32.84C64.9778 32.84 63.8112 32.5367 62.9245 31.93C62.5045 31.79 62.1778 31.72 61.9445 31.72C61.5245 31.72 61.1978 32 60.9645 32.56C60.7778 33.12 60.5912 34.1467 60.4045 35.64C60.3578 35.9667 60.3345 36.4333 60.3345 37.04C60.3345 39.42 61.1278 40.7267 62.7145 40.96C63.7878 41.1933 64.5578 41.31 65.0245 41.31C65.5845 41.31 66.2145 41.1233 66.9145 40.75L68.2445 39.98C68.5245 39.84 68.7812 39.6533 69.0145 39.42C69.2478 39.1867 69.4578 38.9767 69.6445 38.79C69.7378 38.6967 69.8778 38.5567 70.0645 38.37C70.2512 38.1367 70.4145 37.9967 70.5545 37.95C70.7412 37.8567 70.9045 37.81 71.0445 37.81C71.2312 37.81 71.4412 37.9267 71.6745 38.16C71.9078 38.3467 72.0945 38.4867 72.2345 38.58C72.6545 38.58 72.7478 38.8833 72.5145 39.49C72.2812 40.05 71.7678 40.7267 70.9745 41.52C70.2278 42.2667 69.3645 42.9433 68.3845 43.55ZM68.3145 28.71C69.1078 28.3833 69.9012 27.8 70.6945 26.96C71.5345 26.12 71.9545 25.42 71.9545 24.86C71.9545 24.3 71.7445 23.8333 71.3245 23.46C70.9045 23.0867 70.3212 22.9 69.5745 22.9C69.0145 22.9 68.5945 22.9467 68.3145 23.04C67.6612 23.2267 66.8912 23.74 66.0045 24.58C65.1178 25.3733 64.3478 26.19 63.6945 27.03C63.0412 27.87 62.7845 28.36 62.9245 28.5C63.1578 28.92 64.0678 29.13 65.6545 29.13C66.7278 29.13 67.6145 28.99 68.3145 28.71ZM81.6118 46C81.4718 46.0467 81.2384 46.07 80.9118 46.07C80.1651 46.07 79.5818 45.6967 79.1618 44.95C78.7418 44.2033 78.5318 43.1767 78.5318 41.87C78.5318 40.7967 78.6718 39.56 78.9518 38.16C79.4651 36.8067 79.7218 35.8267 79.7218 35.22C79.8618 34.3333 80.3284 32.7467 81.1218 30.46C81.9618 28.1267 82.4984 26.7267 82.7318 26.26C82.9184 26.26 83.0818 26.12 83.2218 25.84C83.3618 25.5133 83.4318 25.1633 83.4318 24.79C83.4318 24.37 83.5018 23.95 83.6418 23.53C83.8284 23.0633 84.0151 22.7367 84.2018 22.55C84.2018 22.41 84.2484 22.1533 84.3418 21.78C84.4818 21.4067 84.5518 21.15 84.5518 21.01C84.5518 20.9167 84.5984 20.7533 84.6918 20.52C84.8318 20.24 84.9018 20.03 84.9018 19.89C85.6484 18.4433 86.9551 15.2 88.8218 10.16C90.6884 5.07333 91.6218 2.25 91.6218 1.69C91.6218 0.943331 91.9951 0.569997 92.7418 0.569997C92.9751 0.336663 93.3484 0.219997 93.8618 0.219997L94.9818 1.34C95.3084 1.66666 95.5184 2.01666 95.6118 2.39C95.7051 2.71666 95.7518 3.23 95.7518 3.93C95.7518 4.63 95.6584 5.23666 95.4718 5.75C95.2851 6.26333 94.8184 7.31333 94.0718 8.9C93.9318 9.22667 93.7451 9.62333 93.5118 10.09C93.2784 10.51 93.0218 11.0467 92.7418 11.7C92.6484 11.9333 92.2751 12.7733 91.6218 14.22C91.1551 15.1533 90.9218 15.69 90.9218 15.83C90.9218 15.97 90.8284 16.2733 90.6418 16.74C90.4551 17.16 90.2918 17.6033 90.1518 18.07C89.7784 18.8167 89.1718 20.1467 88.3318 22.06C87.5384 23.9267 87.1418 24.9533 87.1418 25.14C87.1418 25.6533 87.0251 26.0267 86.7918 26.26C86.6518 26.26 86.5584 26.3767 86.5118 26.61C86.4651 26.7967 86.4418 26.9367 86.4418 27.03C86.4418 27.4967 86.0684 28.7333 85.3218 30.74L84.6918 32.77C83.8051 35.8033 83.1751 38.02 82.8018 39.42C82.4751 40.82 82.3118 42.01 82.3118 42.99C82.3118 44.1567 82.2651 44.9033 82.1718 45.23C82.1251 45.5567 81.9384 45.8133 81.6118 46ZM98.688 44.39C97.2413 44.39 96.2846 44.32 95.818 44.18C95.3513 43.9933 94.8146 43.62 94.208 43.06C93.7413 42.1267 93.2746 41.4267 92.808 40.96C92.6213 40.4467 92.528 39.6767 92.528 38.65C92.528 37.4833 92.668 36.2233 92.948 34.87C93.228 33.47 93.6013 32.1633 94.068 30.95C94.2546 30.5767 94.3946 30.2267 94.488 29.9C94.628 29.5733 94.7213 29.3633 94.768 29.27C94.768 28.9433 95.3513 27.94 96.518 26.26C97.7313 24.5333 98.688 23.3433 99.388 22.69C99.7146 22.3167 100.205 21.92 100.858 21.5C101.558 21.08 102.165 20.7767 102.678 20.59C103.985 20.1233 105.128 19.89 106.108 19.89C107.461 19.89 108.605 20.52 109.538 21.78C110.565 22.8067 111.078 23.95 111.078 25.21C111.078 25.6767 111.008 26.19 110.868 26.75C110.401 28.6167 109.725 29.55 108.838 29.55C108.231 29.55 107.648 29.2 107.088 28.5C106.901 28.0333 106.808 27.73 106.808 27.59C106.808 27.45 106.901 27.0533 107.088 26.4C107.181 25.9333 107.228 25.6067 107.228 25.42C107.228 24.86 107.135 24.37 106.948 23.95C106.761 23.53 106.505 23.32 106.178 23.32C105.105 23.32 103.705 24.2533 101.978 26.12C101.371 26.7733 100.578 27.8 99.598 29.2C98.6646 30.6 97.9646 31.86 97.498 32.98C97.0313 34.38 96.658 35.5233 96.378 36.41C96.098 37.2967 95.9113 37.8567 95.818 38.09C95.818 38.1833 95.8646 38.3467 95.958 38.58C96.098 38.8133 96.168 39 96.168 39.14C96.168 39.4667 96.238 39.7233 96.378 39.91C96.518 40.0967 96.7746 40.2833 97.148 40.47C97.6613 40.8433 98.268 41.03 98.968 41.03C99.7146 41.03 100.578 40.7967 101.558 40.33C102.165 40.05 103.028 39.4433 104.148 38.51L105.828 37.25C106.155 37.0167 106.435 36.83 106.668 36.69C106.948 36.5033 107.158 36.3867 107.298 36.34C107.438 36.2467 107.508 36.2467 107.508 36.34C107.508 36.5267 107.578 36.62 107.718 36.62C107.858 36.62 108.021 36.5267 108.208 36.34C108.628 35.78 109.165 35.5 109.818 35.5C110.191 35.5 110.378 35.57 110.378 35.71L110.308 36.06C110.308 36.2933 110.425 36.5267 110.658 36.76C110.658 36.9467 110.588 37.2033 110.448 37.53C110.355 37.81 110.215 38.0433 110.028 38.23C109.748 38.65 109.258 39.1633 108.558 39.77C107.905 40.33 107.461 40.7033 107.228 40.89H107.158C106.925 40.89 106.598 41.1 106.178 41.52C105.478 42.1733 104.871 42.5 104.358 42.5C104.171 42.5933 103.961 42.71 103.728 42.85C103.495 42.9433 103.378 43.06 103.378 43.2C102.911 43.6667 102.351 43.9933 101.698 44.18C101.045 44.32 100.041 44.39 98.688 44.39ZM123.229 43.34C122.529 43.48 122.016 43.55 121.689 43.55C121.409 43.55 121.176 43.5033 120.989 43.41C120.802 43.27 120.546 43.0367 120.219 42.71C119.192 42.1967 118.376 41.4733 117.769 40.54C117.209 39.56 116.976 38.6967 117.069 37.95C117.256 35.8033 117.862 33.4467 118.889 30.88C119.962 28.3133 121.222 26.05 122.669 24.09C124.116 22.13 125.516 20.9167 126.869 20.45C127.709 20.1233 128.409 19.96 128.969 19.96C130.089 19.96 130.882 20.4267 131.349 21.36C131.676 22.0133 131.839 22.5033 131.839 22.83C131.839 23.39 131.512 23.7633 130.859 23.95C130.719 23.95 130.556 24.02 130.369 24.16C130.182 24.3 130.089 24.44 130.089 24.58C130.136 24.6267 130.346 24.65 130.719 24.65C131.512 24.65 132.492 24.5333 133.659 24.3C134.826 24.0667 135.572 23.81 135.899 23.53C136.179 23.39 136.412 23.32 136.599 23.32L137.579 23.46C138.372 23.6933 138.769 23.9733 138.769 24.3C138.769 24.4867 138.839 24.6733 138.979 24.86C139.119 25 139.282 25.07 139.469 25.07C139.749 25.1167 139.702 25.3033 139.329 25.63C139.002 25.9567 138.349 26.4933 137.369 27.24C137.136 27.38 136.786 27.59 136.319 27.87C135.899 28.15 135.642 28.3833 135.549 28.57C135.502 28.7567 135.526 29.0133 135.619 29.34C135.806 29.76 135.899 30.2733 135.899 30.88C135.899 32.42 135.222 34.1233 133.869 35.99C132.562 37.8567 130.906 39.49 128.899 40.89C126.939 42.29 125.049 43.1067 123.229 43.34ZM122.039 40.26C122.319 40.26 123.019 39.98 124.139 39.42C124.746 38.8133 125.236 38.44 125.609 38.3C125.936 38.3 126.379 38.0667 126.939 37.6C127.499 37.0867 128.362 36.0833 129.529 34.59C130.416 33.5633 131.069 32.7 131.489 32C131.956 31.3 132.189 30.6233 132.189 29.97C132.189 29.69 132.166 29.48 132.119 29.34C132.072 29.2 131.909 29.0833 131.629 28.99C131.396 28.85 131.162 28.7333 130.929 28.64C130.509 28.64 130.112 28.5467 129.739 28.36C129.412 28.1267 128.922 27.7533 128.269 27.24L127.149 25.84L125.959 27.03C124.839 28.15 123.696 29.9933 122.529 32.56C121.362 35.08 120.709 37.04 120.569 38.44C120.522 39.0933 120.616 39.56 120.849 39.84C121.129 40.0733 121.526 40.2133 122.039 40.26ZM173.737 39.91C173.923 40.05 174.017 40.26 174.017 40.54C174.017 40.8667 173.9 41.1933 173.667 41.52C173.48 41.8 173.293 41.94 173.107 41.94C172.22 41.94 171.357 41.7067 170.517 41.24C169.723 40.7267 169.327 39.9333 169.327 38.86V34.52C169.327 32.3267 169.163 31.09 168.837 30.81C168.137 30.4367 166.923 31.2067 165.197 33.12C163.517 35.0333 161.883 37.2967 160.297 39.91C159.783 40.75 159.363 41.4033 159.037 41.87C158.71 42.3367 158.453 42.57 158.267 42.57C158.127 42.57 157.893 42.4533 157.567 42.22C156.12 41.8 155.397 40.9833 155.397 39.77C155.397 39.63 155.443 39.3267 155.537 38.86C156.003 37.32 156.47 35.6167 156.937 33.75C157.403 31.8367 157.777 30.2267 158.057 28.92C157.917 28.64 157.683 28.5 157.357 28.5C156.89 28.5 156.353 28.7333 155.747 29.2C154.58 29.9933 153.087 31.8833 151.267 34.87C148.98 38.37 147.393 40.4933 146.507 41.24C146.18 41.8 145.877 42.2433 145.597 42.57C145.363 42.85 145.13 42.99 144.897 42.99C144.71 42.99 144.36 42.85 143.847 42.57C142.493 41.7767 141.817 40.6567 141.817 39.21C141.817 38.51 142.027 37.11 142.447 35.01C142.867 32.91 143.333 30.95 143.847 29.13C144.267 28.3367 144.64 27.52 144.967 26.68C145.34 25.7933 145.527 25.2567 145.527 25.07C145.713 24.09 145.947 23.04 146.227 21.92C146.507 20.8 146.717 20.17 146.857 20.03C147.183 19.7033 147.557 19.54 147.977 19.54C148.677 19.54 149.19 19.9133 149.517 20.66C150.03 21.1733 150.287 21.8267 150.287 22.62C150.287 23.5067 150.03 24.65 149.517 26.05C148.723 27.7767 147.86 30.2967 146.927 33.61C147.907 32.5367 148.607 31.6967 149.027 31.09C150.147 29.5033 151.593 27.73 153.367 25.77C154.813 24.1833 156.447 23.39 158.267 23.39C160.413 23.7633 161.65 25.56 161.977 28.78C161.977 29.34 161.93 30.04 161.837 30.88C161.743 31.6733 161.673 32.1867 161.627 32.42C161.813 32.14 162.28 31.5333 163.027 30.6C163.82 29.6667 164.777 28.71 165.897 27.73C166.923 26.9367 167.88 26.54 168.767 26.54C169.513 26.54 170.167 26.8433 170.727 27.45C171.707 28.01 172.407 28.8033 172.827 29.83C173.247 30.81 173.457 32.07 173.457 33.61C173.457 34.4033 173.433 35.0333 173.387 35.5C173.293 36.4333 173.247 37.0167 173.247 37.25C173.247 38.1367 173.41 39.0233 173.737 39.91ZM184.627 44.32C183.133 43.7133 182.083 42.9433 181.477 42.01C180.87 41.03 180.567 39.6767 180.567 37.95C180.567 37.11 180.637 36.13 180.777 35.01L180.917 32.49C180.917 32.07 180.87 31.7433 180.777 31.51C180.683 31.2767 180.473 31.02 180.147 30.74C180.053 30.6467 179.82 30.4133 179.447 30.04C179.073 29.6667 178.91 29.3633 178.957 29.13L178.887 28.78C178.887 28.4533 178.933 28.15 179.027 27.87C179.167 27.59 179.307 27.45 179.447 27.45C179.587 27.45 179.773 27.4267 180.007 27.38C180.24 27.2867 180.45 27.2633 180.637 27.31C181.29 27.31 181.617 27.45 181.617 27.73C181.803 28.1033 182.107 28.15 182.527 27.87C182.993 27.5433 183.437 26.9367 183.857 26.05C184.51 25.0233 185.467 23.95 186.727 22.83C188.033 21.6633 189.107 20.8467 189.947 20.38C190.273 20.1933 190.81 20.03 191.557 19.89C192.303 19.7033 192.957 19.61 193.517 19.61C194.357 19.61 195.08 19.7967 195.687 20.17C196.34 20.5433 196.993 21.08 197.647 21.78C198.533 22.4333 198.977 23.46 198.977 24.86C198.977 25.84 198.743 26.8433 198.277 27.87C198.09 28.57 197.343 29.4567 196.037 30.53C194.777 31.6033 193.61 32.35 192.537 32.77C191.23 33.0967 189.737 33.26 188.057 33.26C186.937 33.26 186.213 33.1667 185.887 32.98C185.327 32.6533 184.93 33.9133 184.697 36.76C184.65 37.0867 184.627 37.53 184.627 38.09C184.627 38.8833 184.743 39.5133 184.977 39.98C185.023 40.0267 185.187 40.2133 185.467 40.54C185.747 40.82 186.097 41.0767 186.517 41.31C186.937 41.4967 187.38 41.59 187.847 41.59C188.267 41.59 188.593 41.5433 188.827 41.45C189.34 41.31 189.83 41.0533 190.297 40.68C190.763 40.26 191.417 39.63 192.257 38.79C193.003 38.0433 193.54 37.53 193.867 37.25C194.1 36.83 194.567 36.62 195.267 36.62C195.453 36.62 195.78 36.6667 196.247 36.76C196.667 37.0867 196.877 37.4367 196.877 37.81C196.877 38.1833 196.643 38.8833 196.177 39.91C195.943 40.3767 195.36 41.03 194.427 41.87C193.54 42.6633 192.747 43.2933 192.047 43.76C190.6 44.5533 189.153 44.95 187.707 44.95C186.82 44.95 185.793 44.74 184.627 44.32ZM188.757 30.11C189.223 30.0167 189.9 29.9 190.787 29.76C191.673 29.62 192.397 29.3167 192.957 28.85C193.563 28.3367 194.263 27.4733 195.057 26.26C195.197 25.8867 195.267 25.5133 195.267 25.14C195.267 24.44 195.127 23.95 194.847 23.67C194.52 23.3433 194.147 23.18 193.727 23.18C193.073 23.18 192.397 23.46 191.697 24.02C191.23 24.16 190.53 24.6733 189.597 25.56C188.71 26.4467 187.94 27.3333 187.287 28.22C186.633 29.06 186.423 29.55 186.657 29.69C186.563 29.83 186.797 29.9467 187.357 30.04C187.917 30.0867 188.383 30.11 188.757 30.11ZM224.973 45.51C224.227 45.37 223.457 44.88 222.663 44.04C221.917 43.1533 221.427 42.3367 221.193 41.59C221.193 41.4967 221.147 41.4033 221.053 41.31C220.96 41.17 220.89 41.0767 220.843 41.03C220.657 40.89 220.563 40.12 220.563 38.72C220.563 37.6 220.61 36.4333 220.703 35.22C220.843 34.0067 221.007 33.0267 221.193 32.28L222.453 28.57L223.433 25.77L225.323 21.71L222.523 20.94C222.197 20.8933 221.917 20.73 221.683 20.45C221.497 20.17 221.403 19.9133 221.403 19.68C221.403 19.3067 221.59 18.8633 221.963 18.35C222.383 17.79 222.71 17.51 222.943 17.51C223.083 17.5567 223.457 17.58 224.063 17.58C225.463 17.58 226.513 17.51 227.213 17.37C227.68 17.1833 228.007 16.81 228.193 16.25C228.38 15.8767 228.59 15.41 228.823 14.85C229.103 14.29 229.36 13.7767 229.593 13.31C229.733 13.03 229.943 12.61 230.223 12.05C230.55 11.4433 230.947 10.7667 231.413 10.02C231.507 9.88 231.717 9.55333 232.043 9.04C232.37 8.48 232.767 8.01333 233.233 7.64C233.56 7.31333 233.957 7.15 234.423 7.15C234.89 7.15 235.497 7.45333 236.243 8.06C236.337 8.2 236.453 8.38666 236.593 8.62C236.78 8.85333 236.873 9.06333 236.873 9.25C236.873 9.43666 236.687 9.83333 236.313 10.44C236.033 11 235.753 11.5133 235.473 11.98C235.24 12.4 235.03 12.7733 234.843 13.1C234.283 14.0333 233.887 14.7333 233.653 15.2C233.187 15.8067 232.953 16.2733 232.953 16.6C232.953 16.9267 233.257 17.09 233.863 17.09C234.517 17.09 235.613 16.95 237.153 16.67C237.807 16.5767 238.25 16.53 238.483 16.53C240.117 16.53 241.003 17.2067 241.143 18.56C241.19 18.84 241.213 19.1667 241.213 19.54C241.213 20.1933 240.98 20.59 240.513 20.73C240.093 20.87 239.113 20.94 237.573 20.94C236.08 21.1733 234.54 21.29 232.953 21.29C232.673 21.29 232.347 21.3133 231.973 21.36C231.647 21.36 231.297 21.4067 230.923 21.5C230.55 21.5933 230.27 21.7333 230.083 21.92C229.943 22.1067 229.78 22.41 229.593 22.83C229.453 22.97 229.127 23.5067 228.613 24.44C227.96 25.7933 227.54 26.61 227.353 26.89C226.093 30.6233 225.16 34.45 224.553 38.37C224.46 39.1167 224.413 39.5833 224.413 39.77C224.413 40.47 224.647 40.96 225.113 41.24C225.58 41.52 226.373 41.66 227.493 41.66C229.08 41.66 230.457 41.4967 231.623 41.17C233.023 40.5633 234.073 40.05 234.773 39.63C235.193 39.3967 235.567 39.1867 235.893 39C236.267 38.7667 236.523 38.6033 236.663 38.51C236.803 38.23 236.967 38.09 237.153 38.09C237.527 38.09 237.853 38.4633 238.133 39.21C238.133 39.9567 237.97 40.61 237.643 41.17C237.317 41.73 236.5 42.3833 235.193 43.13C232.487 44.8567 229.78 45.72 227.073 45.72C226.327 45.72 225.627 45.65 224.973 45.51ZM247.447 44.95C246.887 44.95 246.444 44.8567 246.117 44.67C245.791 44.4833 245.324 44.1333 244.717 43.62C243.177 41.9867 242.407 40.4933 242.407 39.14C242.407 38.8133 242.431 38.58 242.477 38.44C242.617 38.1133 242.664 37.7867 242.617 37.46C242.617 37.1333 242.617 36.9233 242.617 36.83C242.431 36.6433 242.337 36.5267 242.337 36.48C242.337 36.3867 242.384 36.3167 242.477 36.27C242.571 36.1767 242.641 36.0833 242.687 35.99C242.967 35.99 243.061 35.7333 242.967 35.22C242.874 34.8467 243.061 34.03 243.527 32.77C243.994 31.4633 244.577 30.2733 245.277 29.2C245.791 28.36 246.537 27.31 247.517 26.05C248.544 24.79 249.454 23.8333 250.247 23.18C251.367 22.2 252.371 21.4767 253.257 21.01C254.144 20.5433 255.124 20.1933 256.197 19.96C257.131 19.7267 257.761 19.61 258.087 19.61C258.414 19.61 258.694 19.7033 258.927 19.89C259.207 20.03 259.557 20.31 259.977 20.73C261.237 21.29 262.101 22.0133 262.567 22.9C263.081 23.74 263.337 25.07 263.337 26.89C263.337 29.9233 262.101 33.2133 259.627 36.76C258.554 38.3 257.551 39.49 256.617 40.33C255.684 41.1233 254.447 41.9867 252.907 42.92C251.927 43.62 251.017 44.1333 250.177 44.46C249.384 44.74 248.474 44.9033 247.447 44.95ZM254.167 37.53C255.287 36.27 256.174 35.08 256.827 33.96C257.527 32.84 258.181 31.4167 258.787 29.69C259.021 28.8967 259.137 27.94 259.137 26.82C259.137 25.42 258.951 24.6267 258.577 24.44C258.111 24.2067 257.644 24.09 257.177 24.09C256.151 24.09 255.077 24.5567 253.957 25.49C252.604 26.6567 251.391 28.1033 250.317 29.83C249.244 31.51 248.147 33.61 247.027 36.13C246.561 37.11 246.327 38.0667 246.327 39C246.327 39.7 246.491 40.26 246.817 40.68C247.191 41.1 247.681 41.31 248.287 41.31C249.827 41.31 251.787 40.05 254.167 37.53ZM12.9801 136.66L13.0501 136.45C13.0501 135.983 12.6534 135.727 11.8601 135.68C10.8801 135.073 9.99339 134.28 9.20006 133.3C8.4534 132.32 7.94006 131.457 7.66006 130.71C7.3334 129.963 7.17006 129.567 7.17006 129.52C7.17006 129.38 7.24006 129.263 7.38006 129.17C7.56673 129.077 7.77673 128.96 8.01006 128.82C8.29006 128.587 8.59339 128.47 8.92006 128.47C9.10673 128.47 9.27006 128.587 9.41006 128.82C9.59673 129.007 9.83006 129.357 10.1101 129.87C10.6701 130.85 11.6267 131.643 12.9801 132.25C14.3334 132.81 15.8734 133.09 17.6001 133.09C19.7001 133.09 21.6601 132.67 23.4801 131.83C24.6934 131.317 25.5801 130.827 26.1401 130.36C26.7001 129.847 26.9801 129.287 26.9801 128.68C26.9801 128.12 26.7234 127.443 26.2101 126.65C26.0701 126.277 25.8601 125.95 25.5801 125.67C25.3467 125.343 24.9967 124.97 24.5301 124.55C24.2501 124.317 23.7134 123.803 22.9201 123.01C22.1734 122.73 21.4034 122.357 20.6101 121.89L19.1401 121.19C17.8801 120.63 16.4101 119.673 14.7301 118.32C13.0967 116.92 12.0001 115.707 11.4401 114.68C10.7867 114.073 10.2734 113.233 9.90006 112.16C9.52673 111.087 9.34006 109.92 9.34006 108.66C9.34006 106.98 9.69006 105.44 10.3901 104.04C10.9501 102.78 12.1867 101.03 14.1001 98.79C16.0134 96.55 17.4834 95.08 18.5101 94.38L20.3301 92.63C20.3767 92.4433 20.4467 92.35 20.5401 92.35C20.6334 92.3033 20.7034 92.28 20.7501 92.28C20.8901 92.1867 21.3801 91.9767 22.2201 91.65C23.0601 91.2767 23.9467 90.6467 24.8801 89.76C28.0534 88.22 30.5967 87.1233 32.5101 86.47C34.4701 85.77 36.0801 85.42 37.3401 85.42C39.1134 85.5133 40.6067 86.0733 41.8201 87.1C43.0801 88.08 43.8267 89.3867 44.0601 91.02C44.1534 91.3 44.2001 91.72 44.2001 92.28C44.2001 93.96 43.5934 95.78 42.3801 97.74C41.1667 99.6533 39.7901 101.053 38.2501 101.94C37.0834 102.453 36.2667 102.71 35.8001 102.71C35.4734 102.71 35.2401 102.593 35.1001 102.36C35.0067 102.127 34.9834 101.753 35.0301 101.24C35.0301 100.82 35.1701 100.353 35.4501 99.84C35.7767 99.28 36.4767 98.3933 37.5501 97.18C39.4634 94.4267 40.4201 92.3733 40.4201 91.02C40.4201 90.2267 40.0701 89.8067 39.3701 89.76C38.8567 89.62 37.5501 89.7367 35.4501 90.11C33.3967 90.4833 32.3701 90.7867 32.3701 91.02C32.3701 91.0667 32.3467 91.16 32.3001 91.3C32.3001 91.3933 32.2301 91.4167 32.0901 91.37C31.9034 91.3233 30.1767 92.3033 26.9101 94.31C23.6434 96.27 21.9634 97.3667 21.8701 97.6C21.8234 97.8333 21.6367 98.09 21.3101 98.37C21.0301 98.6033 20.6801 98.8133 20.2601 99C19.3734 99.5133 18.5567 100.26 17.8101 101.24C17.0634 102.22 16.1767 103.62 15.1501 105.44C14.5901 106.233 14.1234 107.097 13.7501 108.03C13.4234 108.963 13.2601 109.803 13.2601 110.55C13.2601 111.063 13.3301 111.507 13.4701 111.88C13.7034 112.673 14.4267 113.653 15.6401 114.82C16.8534 115.94 18.3701 117.037 20.1901 118.11C22.5701 119.463 24.5534 120.793 26.1401 122.1C27.7734 123.36 28.8001 124.433 29.2201 125.32C30.2934 126.813 30.8301 128.47 30.8301 130.29C30.8301 130.943 30.7601 131.55 30.6201 132.11C30.2467 132.903 29.6634 133.673 28.8701 134.42C28.0767 135.213 27.4001 135.587 26.8401 135.54C26.3734 135.68 25.9767 135.843 25.6501 136.03C25.3234 136.263 25.0434 136.427 24.8101 136.52C24.2967 136.847 23.0601 137.103 21.1001 137.29C19.1867 137.523 17.4134 137.593 15.7801 137.5L12.9801 136.66ZM47.793 133.86C47.1397 133.673 46.603 133.463 46.183 133.23C45.763 132.997 45.203 132.553 44.503 131.9C43.663 130.78 43.103 129.753 42.823 128.82C42.5897 127.84 42.473 126.3 42.473 124.2C42.473 123.08 43.103 120 44.363 114.96C44.2697 115.287 44.433 114.61 44.853 112.93C44.993 112.417 44.8064 112.09 44.293 111.95C43.7797 111.81 43.0564 111.74 42.123 111.74C41.3297 111.74 40.863 111.693 40.723 111.6C40.583 111.553 40.4897 111.483 40.443 111.39C40.443 111.297 40.443 111.227 40.443 111.18C40.443 110.947 40.3497 110.667 40.163 110.34C40.1164 110.293 40.093 110.223 40.093 110.13C40.093 109.897 40.2097 109.64 40.443 109.36C40.723 109.08 41.0497 108.917 41.423 108.87C41.6564 108.823 42.193 108.753 43.033 108.66C43.873 108.567 44.6664 108.38 45.413 108.1C46.1597 107.82 46.743 107.423 47.163 106.91C47.7697 105.37 48.5397 103.643 49.473 101.73C50.4064 99.77 51.0364 98.6033 51.363 98.23C52.1097 97.8567 52.623 97.67 52.903 97.67C53.183 97.67 53.4164 97.7633 53.603 97.95C53.7897 98.1367 54.0464 98.4633 54.373 98.93C54.4197 99.0233 54.5364 99.1867 54.723 99.42C54.9097 99.6533 55.003 99.8867 55.003 100.12C55.003 100.493 54.8164 101.053 54.443 101.8C54.1164 102.547 53.4397 103.853 52.413 105.72L51.503 107.47C51.643 107.517 51.9697 107.54 52.483 107.54C52.9964 107.54 53.4164 107.517 53.743 107.47C54.7697 107.283 55.7264 107.19 56.613 107.19C57.0797 107.19 57.4064 107.213 57.593 107.26C58.6664 107.26 59.4364 107.47 59.903 107.89C60.4164 108.263 60.7197 108.917 60.813 109.85C60.9064 110.363 60.813 110.667 60.533 110.76C60.253 110.853 59.4597 110.9 58.153 110.9C52.7397 111.133 50.0097 111.343 49.963 111.53C49.7764 111.67 49.4264 112.487 48.913 113.98C48.3997 115.473 47.9564 116.897 47.583 118.25C46.9764 121.05 46.673 123.523 46.673 125.67C46.673 127.63 46.953 128.937 47.513 129.59C47.7464 129.823 48.1897 129.94 48.843 129.94C49.4964 129.94 50.1964 129.823 50.943 129.59C51.7364 129.31 52.3897 128.96 52.903 128.54C53.743 127.84 54.443 127.49 55.003 127.49C55.283 127.49 55.493 127.583 55.633 127.77C55.8197 127.91 55.913 128.097 55.913 128.33C55.913 128.843 55.633 129.497 55.073 130.29C54.373 131.363 53.4397 132.25 52.273 132.95C51.1064 133.65 49.9864 134 48.913 134C48.3997 134 48.0264 133.953 47.793 133.86ZM78.6669 133.86C78.3402 134.047 77.8969 133.977 77.3369 133.65C76.8235 133.323 76.3102 132.833 75.7969 132.18C75.4235 131.573 75.1902 130.943 75.0969 130.29C75.0502 129.637 75.0269 128.283 75.0269 126.23C75.0269 125.763 74.9335 125.53 74.7469 125.53C74.6069 125.53 74.2802 125.763 73.7669 126.23C73.2535 126.65 72.6235 127.233 71.8769 127.98C70.6635 129.147 69.5435 130.057 68.5169 130.71C67.4902 131.363 66.6502 131.667 65.9969 131.62C65.4835 131.62 64.9235 131.27 64.3169 130.57C63.7569 129.87 63.3135 129.053 62.9869 128.12C62.8469 127.56 62.7769 126.907 62.7769 126.16C62.7769 124.2 63.1735 121.82 63.9669 119.02C64.8069 116.22 65.7635 113.817 66.8369 111.81C67.9569 109.757 68.9369 108.73 69.7769 108.73C70.4769 108.73 71.1302 109.5 71.7369 111.04C71.8769 111.32 71.9469 111.553 71.9469 111.74C71.9469 112.067 71.7602 112.393 71.3869 112.72C70.6869 113.607 69.8702 115.193 68.9369 117.48C68.0035 119.767 67.2569 121.89 66.6969 123.85C66.1835 125.81 66.0902 126.79 66.4169 126.79C67.0702 126.79 67.8402 126.533 68.7269 126.02C69.6135 125.507 70.5002 124.83 71.3869 123.99C72.2735 123.103 73.0669 122.17 73.7669 121.19C74.4669 120.163 75.3302 118.787 76.3569 117.06C78.3169 113.933 79.3902 112.113 79.5769 111.6C80.2769 110.293 80.7669 109.453 81.0469 109.08C81.3735 108.66 81.7702 108.38 82.2369 108.24H83.2169C83.4969 108.287 83.8235 108.497 84.1969 108.87C84.5235 109.01 84.7102 109.173 84.7569 109.36C84.8502 109.5 84.8969 109.71 84.8969 109.99L83.7769 112.58L83.1469 114.05C83.1002 114.237 82.8435 114.773 82.3769 115.66C81.3035 118.04 80.4869 119.953 79.9269 121.4C79.3669 122.847 78.9469 124.34 78.6669 125.88C78.6202 126.113 78.5969 126.51 78.5969 127.07C78.5969 128.47 78.7369 129.45 79.0169 130.01C79.4369 130.85 79.8569 131.457 80.2769 131.83C80.5102 132.017 80.6269 132.203 80.6269 132.39C80.6269 132.717 80.3469 133.043 79.7869 133.37C79.2735 133.697 78.9002 133.86 78.6669 133.86ZM103.735 133.79C103.408 133.93 103.128 134 102.895 134C102.708 134 102.475 133.907 102.195 133.72C101.915 133.533 101.565 133.277 101.145 132.95C100.818 132.437 100.608 131.97 100.515 131.55C100.468 131.13 100.445 130.29 100.445 129.03C100.585 127.723 101.122 125.413 102.055 122.1C102.988 118.74 103.665 116.57 104.085 115.59C104.272 114.983 104.365 114.47 104.365 114.05C104.365 113.677 104.248 113.443 104.015 113.35C103.782 113.21 103.315 113.093 102.615 113C100.888 112.813 99.2784 113.35 97.7851 114.61C96.3384 115.87 94.7751 117.83 93.0951 120.49C91.6017 122.823 90.8551 124.853 90.8551 126.58C90.8551 126.907 90.9017 127.21 90.9951 127.49C91.1351 127.863 91.5084 128.05 92.1151 128.05C92.5351 128.05 93.0484 127.957 93.6551 127.77C94.3084 127.583 94.8684 127.35 95.3351 127.07C95.6151 126.93 96.5017 126.533 97.9951 125.88C98.2751 125.88 98.4617 125.973 98.5551 126.16C98.6951 126.3 98.7651 126.603 98.7651 127.07C98.7651 127.443 98.9984 127.723 99.4651 127.91C99.6517 128.143 99.3717 128.587 98.6251 129.24C97.8784 129.847 96.7817 130.57 95.3351 131.41C94.1684 131.737 93.1184 131.9 92.1851 131.9C91.2517 131.9 90.3417 131.597 89.4551 130.99C87.9151 130.103 87.1451 128.517 87.1451 126.23C87.1451 124.69 87.5417 122.777 88.3351 120.49C89.1284 118.623 89.9917 117.06 90.9251 115.8C91.9051 114.493 93.1651 113.047 94.7051 111.46C94.9384 111.227 95.4051 110.923 96.1051 110.55C96.8517 110.13 97.6684 109.78 98.5551 109.5C100.048 109.033 101.285 108.8 102.265 108.8C103.105 108.8 103.852 109.01 104.505 109.43L105.415 109.57C105.788 109.57 106.068 109.407 106.255 109.08C106.488 108.753 106.838 108.007 107.305 106.84L109.055 102.22C109.428 101.24 109.988 99.7467 110.735 97.74C111.528 95.7333 112.252 93.96 112.905 92.42C113.232 91.8133 113.488 91.1833 113.675 90.53C113.908 89.8767 114.095 89.48 114.235 89.34H115.565C115.798 89.34 116.148 89.5267 116.615 89.9C117.082 90.2267 117.385 90.6467 117.525 91.16C117.525 91.6733 117.315 92.6767 116.895 94.17C116.475 95.6167 115.892 97.2267 115.145 99C114.772 99.9333 114.468 100.633 114.235 101.1C112.602 104.973 111.482 107.867 110.875 109.78L109.615 113C109.055 114.167 108.728 115.03 108.635 115.59C108.308 116.943 107.935 118.133 107.515 119.16C107.095 120.14 106.862 120.7 106.815 120.84L106.185 122.73C105.392 125.017 104.855 126.627 104.575 127.56C104.342 128.447 104.225 129.357 104.225 130.29C104.225 131.223 104.272 131.993 104.365 132.6C104.365 133.113 104.155 133.51 103.735 133.79ZM120.506 132.32C119.012 131.713 117.962 130.943 117.356 130.01C116.749 129.03 116.446 127.677 116.446 125.95C116.446 125.11 116.516 124.13 116.656 123.01L116.796 120.49C116.796 120.07 116.749 119.743 116.656 119.51C116.562 119.277 116.352 119.02 116.026 118.74C115.932 118.647 115.699 118.413 115.326 118.04C114.952 117.667 114.789 117.363 114.836 117.13L114.766 116.78C114.766 116.453 114.812 116.15 114.906 115.87C115.046 115.59 115.186 115.45 115.326 115.45C115.466 115.45 115.652 115.427 115.886 115.38C116.119 115.287 116.329 115.263 116.516 115.31C117.169 115.31 117.496 115.45 117.496 115.73C117.682 116.103 117.986 116.15 118.406 115.87C118.872 115.543 119.316 114.937 119.736 114.05C120.389 113.023 121.346 111.95 122.606 110.83C123.912 109.663 124.986 108.847 125.826 108.38C126.152 108.193 126.689 108.03 127.436 107.89C128.182 107.703 128.836 107.61 129.396 107.61C130.236 107.61 130.959 107.797 131.566 108.17C132.219 108.543 132.872 109.08 133.526 109.78C134.412 110.433 134.856 111.46 134.856 112.86C134.856 113.84 134.622 114.843 134.156 115.87C133.969 116.57 133.222 117.457 131.916 118.53C130.656 119.603 129.489 120.35 128.416 120.77C127.109 121.097 125.616 121.26 123.936 121.26C122.816 121.26 122.092 121.167 121.766 120.98C121.206 120.653 120.809 121.913 120.576 124.76C120.529 125.087 120.506 125.53 120.506 126.09C120.506 126.883 120.622 127.513 120.856 127.98C120.902 128.027 121.066 128.213 121.346 128.54C121.626 128.82 121.976 129.077 122.396 129.31C122.816 129.497 123.259 129.59 123.726 129.59C124.146 129.59 124.472 129.543 124.706 129.45C125.219 129.31 125.709 129.053 126.176 128.68C126.642 128.26 127.296 127.63 128.136 126.79C128.882 126.043 129.419 125.53 129.746 125.25C129.979 124.83 130.446 124.62 131.146 124.62C131.332 124.62 131.659 124.667 132.126 124.76C132.546 125.087 132.756 125.437 132.756 125.81C132.756 126.183 132.522 126.883 132.056 127.91C131.822 128.377 131.239 129.03 130.306 129.87C129.419 130.663 128.626 131.293 127.926 131.76C126.479 132.553 125.032 132.95 123.586 132.95C122.699 132.95 121.672 132.74 120.506 132.32ZM124.636 118.11C125.102 118.017 125.779 117.9 126.666 117.76C127.552 117.62 128.276 117.317 128.836 116.85C129.442 116.337 130.142 115.473 130.936 114.26C131.076 113.887 131.146 113.513 131.146 113.14C131.146 112.44 131.006 111.95 130.726 111.67C130.399 111.343 130.026 111.18 129.606 111.18C128.952 111.18 128.276 111.46 127.576 112.02C127.109 112.16 126.409 112.673 125.476 113.56C124.589 114.447 123.819 115.333 123.166 116.22C122.512 117.06 122.302 117.55 122.536 117.69C122.442 117.83 122.676 117.947 123.236 118.04C123.796 118.087 124.262 118.11 124.636 118.11ZM163.149 130.78C162.216 130.78 161.446 130.593 160.839 130.22C160.233 129.8 159.719 129.123 159.299 128.19C158.879 126.697 158.669 125.203 158.669 123.71C158.669 123.01 158.739 122.52 158.879 122.24C159.066 122.053 159.136 121.657 159.089 121.05C159.089 120.397 159.089 119.93 159.089 119.65C159.043 118.577 158.716 118.04 158.109 118.04C157.689 118.04 157.223 118.203 156.709 118.53C154.096 120.163 151.903 121.563 150.129 122.73C148.356 123.897 146.653 125.203 145.019 126.65C144.366 127.397 143.876 128.05 143.549 128.61C143.223 129.17 142.989 129.567 142.849 129.8C142.709 129.987 142.523 130.08 142.289 130.08C142.009 130.173 141.823 130.22 141.729 130.22C141.496 130.22 141.216 130.103 140.889 129.87C140.563 129.59 140.353 129.403 140.259 129.31C140.073 129.123 139.769 128.82 139.349 128.4C138.929 127.933 138.696 127.607 138.649 127.42C138.649 127.047 138.789 126.183 139.069 124.83C139.396 123.477 139.653 122.613 139.839 122.24C139.979 122.24 140.189 121.96 140.469 121.4C140.749 120.793 141.006 120.327 141.239 120C141.379 119.3 141.986 117.69 143.059 115.17C143.713 114.05 144.156 113.117 144.389 112.37C144.669 111.623 144.856 110.69 144.949 109.57V109.43C144.949 109.243 145.019 109.103 145.159 109.01C145.299 108.87 145.439 108.8 145.579 108.8C145.906 108.567 146.209 108.45 146.489 108.45C147.096 108.45 147.703 108.823 148.309 109.57C149.009 110.457 149.359 111.39 149.359 112.37C149.359 113.583 148.589 115.497 147.049 118.11C146.909 118.437 146.699 118.903 146.419 119.51C146.186 120.117 146.069 120.537 146.069 120.77L149.989 118.11C150.363 117.69 151.366 116.943 152.999 115.87C154.633 114.797 155.776 114.19 156.429 114.05C157.549 113.537 158.249 113.28 158.529 113.28C159.089 113.28 159.836 113.7 160.769 114.54C161.749 115.38 162.333 116.08 162.519 116.64C162.519 117.153 162.566 117.527 162.659 117.76C162.893 118.693 163.009 119.79 163.009 121.05C163.009 121.89 162.939 122.66 162.799 123.36C162.706 124.013 162.566 124.387 162.379 124.48C162.379 124.527 162.403 124.597 162.449 124.69C162.496 124.783 162.589 124.83 162.729 124.83V125.18C162.356 125.18 162.309 125.577 162.589 126.37C162.869 127.163 163.243 127.77 163.709 128.19C164.176 128.657 164.409 129.123 164.409 129.59C164.409 130.15 163.989 130.547 163.149 130.78ZM178.633 133.86C177.98 133.673 177.443 133.463 177.023 133.23C176.603 132.997 176.043 132.553 175.343 131.9C174.503 130.78 173.943 129.753 173.663 128.82C173.43 127.84 173.313 126.3 173.313 124.2C173.313 123.08 173.943 120 175.203 114.96C175.11 115.287 175.273 114.61 175.693 112.93C175.833 112.417 175.646 112.09 175.133 111.95C174.62 111.81 173.896 111.74 172.963 111.74C172.17 111.74 171.703 111.693 171.563 111.6C171.423 111.553 171.33 111.483 171.283 111.39C171.283 111.297 171.283 111.227 171.283 111.18C171.283 110.947 171.19 110.667 171.003 110.34C170.956 110.293 170.933 110.223 170.933 110.13C170.933 109.897 171.05 109.64 171.283 109.36C171.563 109.08 171.89 108.917 172.263 108.87C172.496 108.823 173.033 108.753 173.873 108.66C174.713 108.567 175.506 108.38 176.253 108.1C177 107.82 177.583 107.423 178.003 106.91C178.61 105.37 179.38 103.643 180.313 101.73C181.246 99.77 181.876 98.6033 182.203 98.23C182.95 97.8567 183.463 97.67 183.743 97.67C184.023 97.67 184.256 97.7633 184.443 97.95C184.63 98.1367 184.886 98.4633 185.213 98.93C185.26 99.0233 185.376 99.1867 185.563 99.42C185.75 99.6533 185.843 99.8867 185.843 100.12C185.843 100.493 185.656 101.053 185.283 101.8C184.956 102.547 184.28 103.853 183.253 105.72L182.343 107.47C182.483 107.517 182.81 107.54 183.323 107.54C183.836 107.54 184.256 107.517 184.583 107.47C185.61 107.283 186.566 107.19 187.453 107.19C187.92 107.19 188.246 107.213 188.433 107.26C189.506 107.26 190.276 107.47 190.743 107.89C191.256 108.263 191.56 108.917 191.653 109.85C191.746 110.363 191.653 110.667 191.373 110.76C191.093 110.853 190.3 110.9 188.993 110.9C183.58 111.133 180.85 111.343 180.803 111.53C180.616 111.67 180.266 112.487 179.753 113.98C179.24 115.473 178.796 116.897 178.423 118.25C177.816 121.05 177.513 123.523 177.513 125.67C177.513 127.63 177.793 128.937 178.353 129.59C178.586 129.823 179.03 129.94 179.683 129.94C180.336 129.94 181.036 129.823 181.783 129.59C182.576 129.31 183.23 128.96 183.743 128.54C184.583 127.84 185.283 127.49 185.843 127.49C186.123 127.49 186.333 127.583 186.473 127.77C186.66 127.91 186.753 128.097 186.753 128.33C186.753 128.843 186.473 129.497 185.913 130.29C185.213 131.363 184.28 132.25 183.113 132.95C181.946 133.65 180.826 134 179.753 134C179.24 134 178.866 133.953 178.633 133.86ZM44.2701 225.36C44.2701 225.547 44.1067 225.64 43.7801 225.64C43.5467 225.64 43.2667 225.547 42.9401 225.36C42.6134 225.173 42.3567 224.917 42.1701 224.59C41.7967 223.797 41.6101 222.817 41.6101 221.65L41.6801 218.78C43.1267 210.287 44.8301 201.747 46.7901 193.16C47.4434 190.873 47.9801 188.703 48.4001 186.65C48.8667 184.597 49.1467 183.29 49.2401 182.73C49.2401 182.59 49.1001 182.66 48.8201 182.94C48.5867 183.173 48.3534 183.477 48.1201 183.85C47.8867 184.177 47.7934 184.41 47.8401 184.55L46.0901 187.14C45.8101 187.42 45.1567 188.493 44.1301 190.36C43.4301 191.853 42.8001 193.02 42.2401 193.86L40.2801 197.57C38.8334 200.23 37.9467 201.84 37.6201 202.4C37.1534 203.1 36.4767 204.313 35.5901 206.04C35.1234 207.16 34.2834 208.49 33.0701 210.03C32.6967 210.543 32.3234 211.103 31.9501 211.71C31.6234 212.317 31.4134 212.713 31.3201 212.9C31.3201 213.133 30.8301 213.927 29.8501 215.28C28.9167 216.633 28.0534 217.753 27.2601 218.64C26.1867 219.76 25.3001 220.577 24.6001 221.09C23.9001 221.557 23.2467 221.79 22.6401 221.79C21.8467 221.79 20.9834 221.347 20.0501 220.46C19.4434 219.807 19.0001 219.037 18.7201 218.15C18.4867 217.263 18.3701 216.167 18.3701 214.86C18.3701 213.693 18.5334 211.733 18.8601 208.98C18.9067 208.747 19.3501 206.25 20.1901 201.49C21.0767 196.683 21.6134 194.047 21.8001 193.58C21.8467 193.3 21.8701 192.973 21.8701 192.6C21.8701 192.18 21.8001 191.97 21.6601 191.97C21.5201 191.97 21.2634 192.273 20.8901 192.88C20.7501 193.067 19.9101 194.373 18.3701 196.8C16.8767 199.227 15.2667 202.33 13.5401 206.11C10.8334 211.103 8.82673 214.86 7.52006 217.38C6.21339 219.853 5.25673 221.627 4.65006 222.7C3.85673 224.24 3.39006 225.08 3.25006 225.22C2.55006 225.22 1.66339 224.637 0.590061 223.47C0.450061 223.19 0.380061 222.933 0.380061 222.7C0.380061 222.373 0.520061 221.837 0.800061 221.09C1.12673 220.343 1.57006 219.363 2.13006 218.15C3.57673 215.303 4.53339 213.693 5.00006 213.32C5.56006 212.573 5.88673 211.757 5.98006 210.87C6.58673 210.03 7.45006 208.513 8.57006 206.32C9.27006 205.2 10.0867 203.8 11.0201 202.12C12.0001 200.44 12.8634 198.83 13.6101 197.29L15.5701 193.86C17.3901 190.687 18.8367 188.237 19.9101 186.51C21.0301 184.783 21.8701 183.64 22.4301 183.08C23.1767 182.193 23.5501 181.493 23.5501 180.98C23.5501 180 23.7367 179.113 24.1101 178.32C24.5301 177.48 24.9501 177.107 25.3701 177.2C25.9301 177.2 26.3734 177.27 26.7001 177.41C27.0734 177.503 27.4467 177.783 27.8201 178.25C27.9134 178.39 28.0534 178.623 28.2401 178.95C28.4734 179.23 28.6367 179.557 28.7301 179.93C28.8701 180.257 28.9401 180.677 28.9401 181.19C28.9401 181.75 28.8701 182.45 28.7301 183.29C28.6834 183.897 28.4967 185.273 28.1701 187.42C27.9834 188.447 27.8901 189.077 27.8901 189.31C26.6767 192.997 25.5801 197.617 24.6001 203.17C23.6667 208.677 23.2001 212.55 23.2001 214.79C23.2001 215.303 23.2467 215.653 23.3401 215.84C23.6667 216.073 23.9467 216.097 24.1801 215.91C24.4601 215.723 24.8567 215.117 25.3701 214.09C25.9767 212.97 27.0034 211.523 28.4501 209.75C28.5434 209.61 29.4534 208.07 31.1801 205.13C35.4734 198.083 39.6501 191.013 43.7101 183.92L45.5301 181.05C46.2301 179.93 46.9067 178.903 47.5601 177.97C48.2134 176.99 48.7267 176.36 49.1001 176.08C49.5667 175.707 50.0101 175.52 50.4301 175.52C51.3167 175.52 52.1101 176.057 52.8101 177.13C53.5101 178.203 53.8601 179.557 53.8601 181.19C53.8601 182.45 53.6034 184.387 53.0901 187C52.5767 189.567 51.9001 192.157 51.0601 194.77C50.7801 196.077 50.3834 197.71 49.8701 199.67C49.3567 201.63 48.8201 203.403 48.2601 204.99C48.1667 205.783 47.9801 206.787 47.7001 208C47.6534 208.233 47.5134 208.957 47.2801 210.17C47.0934 211.337 47.0467 212.13 47.1401 212.55C46.4401 213.81 46.0901 216.33 46.0901 220.11L45.8801 221.72C45.7867 223.027 45.6934 223.913 45.6001 224.38C45.5067 224.847 45.3667 225.057 45.1801 225.01C45.0867 224.963 44.9467 224.94 44.7601 224.94C44.4334 224.94 44.2701 225.08 44.2701 225.36ZM55.8709 219.48C55.7309 219.2 55.4976 218.92 55.1709 218.64C54.8909 218.313 54.7509 218.103 54.7509 218.01C54.7509 217.497 54.6343 217.1 54.4009 216.82C54.3076 216.727 54.2609 216.517 54.2609 216.19C54.2609 215.443 54.6109 214.183 55.3109 212.41C56.0576 210.59 57.0143 208.63 58.1809 206.53C58.4609 206.25 58.8109 205.76 59.2309 205.06C59.6976 204.36 60.0009 203.963 60.1409 203.87C60.1409 203.683 60.2109 203.52 60.3509 203.38C60.4909 203.193 60.6543 203.1 60.8409 203.1V202.68C60.8409 202.26 61.6109 201.257 63.1509 199.67C64.6909 198.037 65.9509 196.917 66.9309 196.31C68.0976 195.517 69.2876 195.12 70.5009 195.12C71.3409 195.12 72.0643 195.353 72.6709 195.82C72.9043 196.1 73.9776 197.103 75.8909 198.83L78.4809 201.14L77.2209 204.64C76.8009 205.9 76.5909 207.043 76.5909 208.07C76.5909 209.843 77.1043 211.547 78.1309 213.18C78.3643 213.693 78.8309 214.183 79.5309 214.65C80.2309 215.117 80.9309 215.397 81.6309 215.49C82.6576 215.677 83.1709 216.19 83.1709 217.03C83.1709 217.963 82.7509 218.523 81.9109 218.71C81.7243 218.757 81.4443 218.78 81.0709 218.78C78.3176 218.78 75.9376 216.843 73.9309 212.97C73.7443 212.69 73.4876 212.177 73.1609 211.43C72.8809 210.683 72.7176 210.17 72.6709 209.89C72.3909 210.263 72.0409 210.707 71.6209 211.22C71.2009 211.733 70.8043 212.177 70.4309 212.55C65.3443 217.637 61.3309 220.18 58.3909 220.18C57.4576 220.18 56.6176 219.947 55.8709 219.48ZM58.3909 215.56C58.3909 215.793 58.6243 215.863 59.0909 215.77C59.6043 215.677 60.2109 215.443 60.9109 215.07C61.6576 214.697 62.4043 214.207 63.1509 213.6C67.1643 210.147 70.0576 207.137 71.8309 204.57L73.3709 202.05C72.9043 201.07 72.4143 200.37 71.9009 199.95C71.3876 199.483 70.9209 199.25 70.5009 199.25C69.5209 199.25 67.9809 200.487 65.8809 202.96C63.7809 205.387 61.8676 208.257 60.1409 211.57C59.7209 212.363 59.3476 213.18 59.0209 214.02C58.6943 214.813 58.4843 215.327 58.3909 215.56ZM89.2976 218.92C89.1576 218.92 88.9009 218.803 88.5276 218.57C88.2009 218.337 87.9209 218.103 87.6876 217.87C87.3609 217.543 87.1509 217.193 87.0576 216.82C87.0109 216.447 86.9876 215.583 86.9876 214.23C86.9876 212.783 87.2676 211.197 87.8276 209.47C88.4342 207.743 89.4842 205.247 90.9776 201.98L93.2876 197.08C93.4276 196.753 93.7542 196.287 94.2676 195.68H94.9676C95.2942 195.68 95.6442 195.89 96.0176 196.31C96.4376 196.73 96.7409 197.22 96.9276 197.78C96.9276 198.527 96.8109 199.227 96.5776 199.88C96.3909 200.533 95.8542 201.443 94.9676 202.61C94.5942 203.17 94.1509 204.057 93.6376 205.27C93.1242 206.483 92.7742 207.51 92.5876 208.35C92.4476 208.583 92.2609 208.98 92.0276 209.54C91.8409 210.1 91.6076 210.683 91.3276 211.29L90.9776 212.83L95.6676 208C97.7209 205.947 99.3776 204.453 100.638 203.52C101.944 202.587 103.018 202.12 103.858 202.12C104.838 202.12 105.631 202.75 106.238 204.01C106.658 204.71 106.938 205.27 107.078 205.69C107.218 206.063 107.288 206.67 107.288 207.51C107.288 207.79 107.241 208.583 107.148 209.89V214.23C107.801 214.09 108.384 213.903 108.898 213.67C109.458 213.437 109.878 213.273 110.158 213.18C111.231 212.713 112.421 212.433 113.728 212.34C113.634 213.133 113.284 213.997 112.678 214.93C112.071 215.863 111.324 216.657 110.438 217.31C109.551 217.917 108.688 218.22 107.848 218.22C107.194 218.22 106.494 217.917 105.748 217.31C105.048 216.703 104.534 216.027 104.208 215.28C104.021 214.767 103.904 214.137 103.858 213.39C103.858 212.643 103.858 211.593 103.858 210.24V207.65C103.858 207.183 103.718 206.95 103.438 206.95C103.251 206.95 102.808 207.23 102.108 207.79C101.174 208.63 99.6576 210.147 97.5576 212.34C95.5509 214.44 93.8009 216.073 92.3076 217.24C90.8609 218.36 89.8576 218.92 89.2976 218.92ZM123.401 219.97C122.935 220.063 122.515 220.11 122.141 220.11C121.535 220.11 120.975 220.063 120.461 219.97C119.948 219.83 119.691 219.667 119.691 219.48C119.691 219.34 119.668 219.247 119.621 219.2C119.575 219.153 119.481 219.13 119.341 219.13C119.295 219.083 119.155 218.967 118.921 218.78C118.688 218.593 118.408 218.43 118.081 218.29C117.661 217.637 117.451 216.937 117.451 216.19C117.451 215.397 117.661 214.16 118.081 212.48C118.221 210.987 118.921 209.12 120.181 206.88C121.441 204.64 122.911 202.517 124.591 200.51C126.318 198.503 127.858 197.103 129.211 196.31C129.911 195.61 130.798 195.26 131.871 195.26C132.711 195.26 133.505 195.47 134.251 195.89C134.905 196.263 135.581 196.893 136.281 197.78C137.028 198.667 137.611 199.577 138.031 200.51C138.218 201.21 138.311 201.887 138.311 202.54C138.311 203.24 138.218 204.337 138.031 205.83C137.798 206.67 137.588 207.697 137.401 208.91C137.261 210.123 137.191 211.173 137.191 212.06C137.098 212.713 137.145 213.25 137.331 213.67C137.518 214.043 137.775 214.23 138.101 214.23C138.335 214.23 138.591 214.16 138.871 214.02C139.338 213.787 139.851 213.67 140.411 213.67C140.925 213.67 141.345 213.81 141.671 214.09C141.998 214.37 142.161 214.79 142.161 215.35C142.161 216.19 141.578 217.03 140.411 217.87C139.291 218.71 138.218 219.13 137.191 219.13C136.491 219.13 135.838 218.593 135.231 217.52C134.671 216.4 134.111 214.977 133.551 213.25L133.131 211.64L130.121 214.51L128.511 216.12C127.765 216.867 127.345 217.31 127.251 217.45C126.738 218.337 125.455 219.177 123.401 219.97ZM123.611 215.84C124.731 215.187 126.108 214.043 127.741 212.41C129.375 210.777 130.728 209.213 131.801 207.72C133.248 205.807 134.158 203.917 134.531 202.05C134.345 201.49 134.041 200.93 133.621 200.37C133.201 199.81 132.828 199.507 132.501 199.46C131.568 199.46 130.588 199.997 129.561 201.07C128.535 202.143 127.321 203.637 125.921 205.55L123.611 208.98C123.331 209.353 122.841 210.357 122.141 211.99C121.441 213.577 121.091 214.533 121.091 214.86C121.091 215.887 121.395 216.4 122.001 216.4C122.468 216.4 123.005 216.213 123.611 215.84ZM165.567 200.86C165.847 201.42 165.987 201.957 165.987 202.47C165.987 203.17 165.707 203.87 165.147 204.57C165.007 204.803 164.75 205.177 164.377 205.69C164.004 206.157 163.677 206.647 163.397 207.16C163.117 207.673 162.907 208.257 162.767 208.91C162.58 209.983 162.02 212.27 161.087 215.77L160.317 218.5L159.197 222.84C157.097 230.073 154.997 234.25 152.897 235.37C152.29 235.603 151.707 235.72 151.147 235.72C150.12 235.72 149.047 235.37 147.927 234.67C146.854 234.017 145.92 233.107 145.127 231.94C144.66 231.287 144.194 230.237 143.727 228.79C143.307 227.39 143.237 226.597 143.517 226.41C143.61 226.317 143.774 226.27 144.007 226.27C144.334 226.27 144.684 226.363 145.057 226.55C145.43 226.783 145.664 227.04 145.757 227.32C145.944 227.833 146.34 228.51 146.947 229.35C147.554 230.19 147.997 230.633 148.277 230.68C149.024 231.053 149.654 231.24 150.167 231.24C150.587 231.24 150.984 231.1 151.357 230.82C152.104 230.213 152.734 229.42 153.247 228.44C153.807 227.507 154.414 225.99 155.067 223.89L155.627 221.86C156.747 217.753 157.564 215.093 158.077 213.88C158.31 213.133 158.544 212.55 158.777 212.13L157.517 213.25C156.957 213.763 156.374 214.253 155.767 214.72C155.16 215.187 154.53 215.56 153.877 215.84C153.55 216.26 152.734 216.47 151.427 216.47C150.494 216.47 149.56 216.33 148.627 216.05C147.647 215.537 147.04 215.14 146.807 214.86C146.574 214.58 146.247 213.927 145.827 212.9C145.64 212.527 145.547 211.943 145.547 211.15C145.547 209.143 146.014 206.997 146.947 204.71C147.834 202.89 149.234 200.953 151.147 198.9C153.06 196.847 154.717 195.61 156.117 195.19C156.677 194.91 157.19 194.77 157.657 194.77C158.17 194.77 158.707 194.863 159.267 195.05C160.014 195.143 160.597 195.307 161.017 195.54C161.437 195.773 162.137 196.31 163.117 197.15C164.237 198.27 165.054 199.507 165.567 200.86ZM157.867 207.79C158.66 206.717 159.22 205.573 159.547 204.36C159.874 203.1 159.99 201.863 159.897 200.65C159.85 199.997 159.757 199.553 159.617 199.32C159.477 199.04 159.22 198.9 158.847 198.9C157.96 198.9 156.934 199.32 155.767 200.16C154.6 201 153.48 202.097 152.407 203.45C151.707 204.383 151.124 205.503 150.657 206.81C150.097 208.397 149.817 209.867 149.817 211.22C149.817 212.247 150.004 212.83 150.377 212.97C151.824 212.923 153.13 212.503 154.297 211.71C155.51 210.917 156.7 209.61 157.867 207.79ZM175.33 220.32C173.836 219.713 172.786 218.943 172.18 218.01C171.573 217.03 171.27 215.677 171.27 213.95C171.27 213.11 171.34 212.13 171.48 211.01L171.62 208.49C171.62 208.07 171.573 207.743 171.48 207.51C171.386 207.277 171.176 207.02 170.85 206.74C170.756 206.647 170.523 206.413 170.15 206.04C169.776 205.667 169.613 205.363 169.66 205.13L169.59 204.78C169.59 204.453 169.636 204.15 169.73 203.87C169.87 203.59 170.01 203.45 170.15 203.45C170.29 203.45 170.476 203.427 170.71 203.38C170.943 203.287 171.153 203.263 171.34 203.31C171.993 203.31 172.32 203.45 172.32 203.73C172.506 204.103 172.81 204.15 173.23 203.87C173.696 203.543 174.14 202.937 174.56 202.05C175.213 201.023 176.17 199.95 177.43 198.83C178.736 197.663 179.81 196.847 180.65 196.38C180.976 196.193 181.513 196.03 182.26 195.89C183.006 195.703 183.66 195.61 184.22 195.61C185.06 195.61 185.783 195.797 186.39 196.17C187.043 196.543 187.696 197.08 188.35 197.78C189.236 198.433 189.68 199.46 189.68 200.86C189.68 201.84 189.446 202.843 188.98 203.87C188.793 204.57 188.046 205.457 186.74 206.53C185.48 207.603 184.313 208.35 183.24 208.77C181.933 209.097 180.44 209.26 178.76 209.26C177.64 209.26 176.916 209.167 176.59 208.98C176.03 208.653 175.633 209.913 175.4 212.76C175.353 213.087 175.33 213.53 175.33 214.09C175.33 214.883 175.446 215.513 175.68 215.98C175.726 216.027 175.89 216.213 176.17 216.54C176.45 216.82 176.8 217.077 177.22 217.31C177.64 217.497 178.083 217.59 178.55 217.59C178.97 217.59 179.296 217.543 179.53 217.45C180.043 217.31 180.533 217.053 181 216.68C181.466 216.26 182.12 215.63 182.96 214.79C183.706 214.043 184.243 213.53 184.57 213.25C184.803 212.83 185.27 212.62 185.97 212.62C186.156 212.62 186.483 212.667 186.95 212.76C187.37 213.087 187.58 213.437 187.58 213.81C187.58 214.183 187.346 214.883 186.88 215.91C186.646 216.377 186.063 217.03 185.13 217.87C184.243 218.663 183.45 219.293 182.75 219.76C181.303 220.553 179.856 220.95 178.41 220.95C177.523 220.95 176.496 220.74 175.33 220.32ZM179.46 206.11C179.926 206.017 180.603 205.9 181.49 205.76C182.376 205.62 183.1 205.317 183.66 204.85C184.266 204.337 184.966 203.473 185.76 202.26C185.9 201.887 185.97 201.513 185.97 201.14C185.97 200.44 185.83 199.95 185.55 199.67C185.223 199.343 184.85 199.18 184.43 199.18C183.776 199.18 183.1 199.46 182.4 200.02C181.933 200.16 181.233 200.673 180.3 201.56C179.413 202.447 178.643 203.333 177.99 204.22C177.336 205.06 177.126 205.55 177.36 205.69C177.266 205.83 177.5 205.947 178.06 206.04C178.62 206.087 179.086 206.11 179.46 206.11ZM195.153 219.41C194.78 218.943 194.593 218.477 194.593 218.01C194.593 217.637 194.477 217.45 194.243 217.45C193.963 217.17 194.5 215.583 195.853 212.69C197.207 209.75 198.373 207.51 199.353 205.97C199.54 205.83 199.68 205.643 199.773 205.41C199.867 205.13 199.867 204.99 199.773 204.99C199.867 204.85 200.007 204.617 200.193 204.29C200.38 203.963 200.567 203.683 200.753 203.45C201.547 201.91 201.873 200.673 201.733 199.74C201.547 199.553 201.337 199.483 201.103 199.53C200.917 199.577 200.8 199.623 200.753 199.67C200.66 199.717 200.403 199.81 199.983 199.95C199.61 200.043 199.283 200.183 199.003 200.37C197.93 201.07 197.253 201.42 196.973 201.42C196.693 201.42 196.437 201.28 196.203 201C196.017 200.72 195.807 200.253 195.573 199.6C195.433 199.18 195.363 198.877 195.363 198.69C195.363 198.363 195.55 198.037 195.923 197.71C196.203 197.43 196.53 197.22 196.903 197.08C197.323 196.893 197.603 196.753 197.743 196.66C198.723 196.1 199.423 195.773 199.843 195.68C200.683 195.447 201.36 195.33 201.873 195.33C203.273 195.33 204.253 195.983 204.813 197.29C205.467 198.083 205.793 198.993 205.793 200.02C205.793 200.907 205.467 202.05 204.813 203.45L204.113 204.5C203.973 204.78 203.903 204.967 203.903 205.06C203.903 205.153 203.927 205.2 203.973 205.2C204.16 205.2 204.37 205.037 204.603 204.71C204.837 204.477 205.14 204.197 205.513 203.87C205.887 203.497 206.143 203.31 206.283 203.31C206.33 203.31 206.4 203.287 206.493 203.24C206.587 203.147 206.633 202.96 206.633 202.68L207.333 202.05C207.52 202.05 208.08 201.653 209.013 200.86L210.343 199.81C210.857 199.437 211.323 199.25 211.743 199.25C211.883 199.203 212.093 199.18 212.373 199.18C213.26 199.18 213.983 199.67 214.543 200.65C215.103 201.583 215.383 202.797 215.383 204.29L213.913 208.07L216.433 204.99C216.853 204.477 217.413 203.917 218.113 203.31C218.207 203.03 218.323 202.867 218.463 202.82C218.65 202.727 218.767 202.68 218.813 202.68C218.86 202.68 218.907 202.657 218.953 202.61C219.047 202.563 219.093 202.493 219.093 202.4C219.28 202.26 219.513 202.097 219.793 201.91C220.12 201.677 220.33 201.49 220.423 201.35C220.843 201.163 221.31 201.07 221.823 201.07C222.803 201.07 223.62 201.7 224.273 202.96C224.553 203.473 224.717 203.94 224.763 204.36C224.857 204.733 224.903 205.387 224.903 206.32C224.717 207.347 224.553 208.42 224.413 209.54C224.413 209.727 224.367 210.193 224.273 210.94C224.04 211.453 223.923 212.247 223.923 213.32C223.923 213.973 223.947 214.393 223.993 214.58C224.087 214.767 224.273 214.86 224.553 214.86C225.253 214.72 226.163 214.393 227.283 213.88C228.45 213.32 229.29 212.783 229.803 212.27C230.503 211.57 231.133 211.22 231.693 211.22C232.207 211.22 232.533 211.5 232.673 212.06C232.813 212.34 232.44 213.087 231.553 214.3C230.713 215.513 230.13 216.12 229.803 216.12C229.71 216.12 229.523 216.26 229.243 216.54C229.01 216.82 228.823 217.007 228.683 217.1C227.89 217.987 227.237 218.43 226.723 218.43C226.537 218.43 226.28 218.5 225.953 218.64C225.673 218.733 225.417 218.78 225.183 218.78C225.09 218.827 224.857 218.85 224.483 218.85C223.783 218.85 223.107 218.663 222.453 218.29C221.8 217.917 221.38 217.357 221.193 216.61C220.82 215.677 220.633 214.37 220.633 212.69C220.633 212.27 220.68 211.593 220.773 210.66L221.123 208.49C221.217 207.603 221.31 207.067 221.403 206.88V206.25C221.403 205.457 221.333 205.06 221.193 205.06C220.82 205.06 219.583 206.273 217.483 208.7C215.383 211.08 213.773 213.133 212.653 214.86C212.327 215.28 211.953 215.91 211.533 216.75C211.16 217.543 210.927 217.963 210.833 218.01C210.647 218.197 210.437 218.29 210.203 218.29C209.923 218.29 209.62 218.15 209.293 217.87C208.967 217.59 208.687 217.24 208.453 216.82C208.267 216.353 208.173 216.003 208.173 215.77C208.173 215.443 208.313 214.813 208.593 213.88C208.873 212.9 209.27 211.617 209.783 210.03C210.297 208.49 210.717 207.16 211.043 206.04C211.417 204.92 211.65 204.173 211.743 203.8C211.743 203.473 210.577 204.313 208.243 206.32C207.777 206.88 207.24 207.463 206.633 208.07C205.56 209.19 204.347 210.497 202.993 211.99C201.687 213.483 200.543 214.907 199.563 216.26C198.537 217.66 197.767 218.64 197.253 219.2C196.787 219.76 196.39 220.04 196.063 220.04C195.83 220.04 195.527 219.83 195.153 219.41ZM248.375 219.55C247.208 220.577 245.808 221.09 244.175 221.09C243.008 221.09 241.888 220.81 240.815 220.25C239.788 219.69 238.925 218.92 238.225 217.94C237.618 217.193 237.175 216.353 236.895 215.42C236.615 214.487 236.475 213.343 236.475 211.99C236.475 211.523 236.521 210.59 236.615 209.19C236.755 207.463 237.315 205.667 238.295 203.8C239.321 201.933 240.581 200.277 242.075 198.83C243.568 197.337 245.038 196.31 246.485 195.75C247.231 195.283 247.908 195.05 248.515 195.05C248.841 195.05 249.168 195.073 249.495 195.12C249.821 195.167 250.171 195.213 250.545 195.26C251.571 195.4 252.341 195.61 252.855 195.89C253.415 196.123 253.881 196.497 254.255 197.01C255.421 198.177 256.005 199.53 256.005 201.07C255.818 202.19 255.095 203.473 253.835 204.92C252.575 206.367 251.058 207.533 249.285 208.42C248.445 208.7 247.488 208.84 246.415 208.84C244.968 208.84 243.801 208.537 242.915 207.93C242.495 207.79 242.168 207.72 241.935 207.72C241.515 207.72 241.188 208 240.955 208.56C240.768 209.12 240.581 210.147 240.395 211.64C240.348 211.967 240.325 212.433 240.325 213.04C240.325 215.42 241.118 216.727 242.705 216.96C243.778 217.193 244.548 217.31 245.015 217.31C245.575 217.31 246.205 217.123 246.905 216.75L248.235 215.98C248.515 215.84 248.771 215.653 249.005 215.42C249.238 215.187 249.448 214.977 249.635 214.79C249.728 214.697 249.868 214.557 250.055 214.37C250.241 214.137 250.405 213.997 250.545 213.95C250.731 213.857 250.895 213.81 251.035 213.81C251.221 213.81 251.431 213.927 251.665 214.16C251.898 214.347 252.085 214.487 252.225 214.58C252.645 214.58 252.738 214.883 252.505 215.49C252.271 216.05 251.758 216.727 250.965 217.52C250.218 218.267 249.355 218.943 248.375 219.55ZM248.305 204.71C249.098 204.383 249.891 203.8 250.685 202.96C251.525 202.12 251.945 201.42 251.945 200.86C251.945 200.3 251.735 199.833 251.315 199.46C250.895 199.087 250.311 198.9 249.565 198.9C249.005 198.9 248.585 198.947 248.305 199.04C247.651 199.227 246.881 199.74 245.995 200.58C245.108 201.373 244.338 202.19 243.685 203.03C243.031 203.87 242.775 204.36 242.915 204.5C243.148 204.92 244.058 205.13 245.645 205.13C246.718 205.13 247.605 204.99 248.305 204.71ZM262.178 218.92C262.038 218.92 261.782 218.803 261.408 218.57C261.082 218.337 260.802 218.103 260.568 217.87C260.242 217.543 260.032 217.193 259.938 216.82C259.892 216.447 259.868 215.583 259.868 214.23C259.868 212.783 260.148 211.197 260.708 209.47C261.315 207.743 262.365 205.247 263.858 201.98L266.168 197.08C266.308 196.753 266.635 196.287 267.148 195.68H267.848C268.175 195.68 268.525 195.89 268.898 196.31C269.318 196.73 269.622 197.22 269.808 197.78C269.808 198.527 269.692 199.227 269.458 199.88C269.272 200.533 268.735 201.443 267.848 202.61C267.475 203.17 267.032 204.057 266.518 205.27C266.005 206.483 265.655 207.51 265.468 208.35C265.328 208.583 265.142 208.98 264.908 209.54C264.722 210.1 264.488 210.683 264.208 211.29L263.858 212.83L268.548 208C270.602 205.947 272.258 204.453 273.518 203.52C274.825 202.587 275.898 202.12 276.738 202.12C277.718 202.12 278.512 202.75 279.118 204.01C279.538 204.71 279.818 205.27 279.958 205.69C280.098 206.063 280.168 206.67 280.168 207.51C280.168 207.79 280.122 208.583 280.028 209.89V214.23C280.682 214.09 281.265 213.903 281.778 213.67C282.338 213.437 282.758 213.273 283.038 213.18C284.112 212.713 285.302 212.433 286.608 212.34C286.515 213.133 286.165 213.997 285.558 214.93C284.952 215.863 284.205 216.657 283.318 217.31C282.432 217.917 281.568 218.22 280.728 218.22C280.075 218.22 279.375 217.917 278.628 217.31C277.928 216.703 277.415 216.027 277.088 215.28C276.902 214.767 276.785 214.137 276.738 213.39C276.738 212.643 276.738 211.593 276.738 210.24V207.65C276.738 207.183 276.598 206.95 276.318 206.95C276.132 206.95 275.688 207.23 274.988 207.79C274.055 208.63 272.538 210.147 270.438 212.34C268.432 214.44 266.682 216.073 265.188 217.24C263.742 218.36 262.738 218.92 262.178 218.92ZM295.862 221.51C295.115 221.37 294.345 220.88 293.552 220.04C292.805 219.153 292.315 218.337 292.082 217.59C292.082 217.497 292.035 217.403 291.942 217.31C291.849 217.17 291.779 217.077 291.732 217.03C291.545 216.89 291.452 216.12 291.452 214.72C291.452 213.6 291.499 212.433 291.592 211.22C291.732 210.007 291.895 209.027 292.082 208.28L293.342 204.57L294.322 201.77L296.212 197.71L293.412 196.94C293.085 196.893 292.805 196.73 292.572 196.45C292.385 196.17 292.292 195.913 292.292 195.68C292.292 195.307 292.479 194.863 292.852 194.35C293.272 193.79 293.599 193.51 293.832 193.51C293.972 193.557 294.345 193.58 294.952 193.58C296.352 193.58 297.402 193.51 298.102 193.37C298.569 193.183 298.895 192.81 299.082 192.25C299.269 191.877 299.479 191.41 299.712 190.85C299.992 190.29 300.249 189.777 300.482 189.31C300.622 189.03 300.832 188.61 301.112 188.05C301.439 187.443 301.835 186.767 302.302 186.02C302.395 185.88 302.605 185.553 302.932 185.04C303.259 184.48 303.655 184.013 304.122 183.64C304.449 183.313 304.845 183.15 305.312 183.15C305.779 183.15 306.385 183.453 307.132 184.06C307.225 184.2 307.342 184.387 307.482 184.62C307.669 184.853 307.762 185.063 307.762 185.25C307.762 185.437 307.575 185.833 307.202 186.44C306.922 187 306.642 187.513 306.362 187.98C306.129 188.4 305.919 188.773 305.732 189.1C305.172 190.033 304.775 190.733 304.542 191.2C304.075 191.807 303.842 192.273 303.842 192.6C303.842 192.927 304.145 193.09 304.752 193.09C305.405 193.09 306.502 192.95 308.042 192.67C308.695 192.577 309.139 192.53 309.372 192.53C311.005 192.53 311.892 193.207 312.032 194.56C312.079 194.84 312.102 195.167 312.102 195.54C312.102 196.193 311.869 196.59 311.402 196.73C310.982 196.87 310.002 196.94 308.462 196.94C306.969 197.173 305.429 197.29 303.842 197.29C303.562 197.29 303.235 197.313 302.862 197.36C302.535 197.36 302.185 197.407 301.812 197.5C301.439 197.593 301.159 197.733 300.972 197.92C300.832 198.107 300.669 198.41 300.482 198.83C300.342 198.97 300.015 199.507 299.502 200.44C298.849 201.793 298.429 202.61 298.242 202.89C296.982 206.623 296.049 210.45 295.442 214.37C295.349 215.117 295.302 215.583 295.302 215.77C295.302 216.47 295.535 216.96 296.002 217.24C296.469 217.52 297.262 217.66 298.382 217.66C299.969 217.66 301.345 217.497 302.512 217.17C303.912 216.563 304.962 216.05 305.662 215.63C306.082 215.397 306.455 215.187 306.782 215C307.155 214.767 307.412 214.603 307.552 214.51C307.692 214.23 307.855 214.09 308.042 214.09C308.415 214.09 308.742 214.463 309.022 215.21C309.022 215.957 308.859 216.61 308.532 217.17C308.205 217.73 307.389 218.383 306.082 219.13C303.375 220.857 300.669 221.72 297.962 221.72C297.215 221.72 296.515 221.65 295.862 221.51ZM2.83006 312.31C2.31673 312.03 1.94339 311.773 1.71006 311.54C1.52339 311.307 1.43006 311.003 1.43006 310.63C1.43006 310.163 1.61673 309.51 1.99006 308.67C2.41006 307.783 3.11006 306.407 4.09006 304.54C4.37006 303.933 4.90673 302.86 5.70006 301.32C8.40673 296.14 9.76006 293.317 9.76006 292.85C9.7134 292.757 9.69006 292.617 9.69006 292.43C9.69006 291.963 10.0634 291.543 10.8101 291.17C11.8834 290.097 12.7701 288.953 13.4701 287.74C13.9367 286.713 14.5667 285.5 15.3601 284.1C16.1534 282.653 17.1334 280.95 18.3001 278.99C18.8601 278.01 19.7001 276.587 20.8201 274.72C22.5467 271.64 24.7634 268.28 27.4701 264.64C28.5434 263.193 29.4301 262.493 30.1301 262.54C31.0167 262.54 31.9967 262.96 33.0701 263.8C34.1901 264.593 34.9601 265.503 35.3801 266.53C35.5667 266.857 35.6601 267.557 35.6601 268.63C35.6601 270.077 35.4967 272.527 35.1701 275.98C35.0767 276.587 34.9834 277.543 34.8901 278.85C34.7501 280.95 34.5401 283.19 34.2601 285.57C33.7467 290.797 33.3734 294.88 33.1401 297.82C32.9067 300.76 32.7901 303.513 32.7901 306.08C32.7901 307.387 32.8134 308.343 32.8601 308.95V309.44L32.7901 311.05C32.5101 311.33 32.0901 311.47 31.5301 311.47C30.8767 311.47 30.2467 311.307 29.6401 310.98C29.0334 310.7 28.6834 310.35 28.5901 309.93C28.5434 309.883 28.4734 309.837 28.3801 309.79C28.2867 309.743 28.2401 309.533 28.2401 309.16L28.3101 307.62L28.5201 303.7L28.8701 292.36L27.9601 292.43C27.0267 292.43 24.9501 292.617 21.7301 292.99C18.5101 293.363 16.5034 293.667 15.7101 293.9C15.2901 293.9 14.7767 294.18 14.1701 294.74C13.5634 295.3 13.0267 296.023 12.5601 296.91C12.4201 297.377 12.0934 298.053 11.5801 298.94C11.0667 299.78 10.8101 300.27 10.8101 300.41C10.5301 300.597 10.2734 300.853 10.0401 301.18C9.8534 301.46 9.73673 301.647 9.69006 301.74C9.69006 302.253 9.20006 303.56 8.22006 305.66C7.28673 307.76 6.35339 309.51 5.42006 310.91L3.95006 313.15L2.83006 312.31ZM17.3201 289.77C17.6001 289.723 18.2067 289.63 19.1401 289.49C20.0734 289.303 20.9134 289.187 21.6601 289.14C25.0201 288.347 27.0734 287.95 27.8201 287.95C28.1467 287.95 28.4501 288.02 28.7301 288.16C28.8701 288.347 29.0101 288.487 29.1501 288.58C29.3367 288.627 29.4534 288.65 29.5001 288.65C29.5934 288.37 29.8734 285.85 30.3401 281.09C30.8534 276.283 31.1334 273.087 31.1801 271.5L31.3901 268C31.1101 268 30.5034 268.537 29.5701 269.61C28.6367 270.683 27.5867 272.083 26.4201 273.81C25.3001 275.49 24.2967 277.217 23.4101 278.99C22.9434 279.83 22.4767 280.623 22.0101 281.37C21.5901 282.07 21.2867 282.42 21.1001 282.42C20.7734 282.747 20.0034 284.007 18.7901 286.2C17.5767 288.393 17.0867 289.583 17.3201 289.77ZM40.4168 322.25C40.1368 322.39 39.8801 322.46 39.6468 322.46C38.9934 322.46 38.4334 322.11 37.9668 321.41C37.5001 320.757 37.2668 319.963 37.2668 319.03C37.2668 318.61 37.3368 318.143 37.4768 317.63C37.5234 317.443 37.6401 317 37.8268 316.3C38.0601 315.647 38.2001 315.087 38.2468 314.62C38.3401 314.107 38.6201 313.173 39.0868 311.82C39.5534 310.467 39.9268 309.557 40.2068 309.09C40.4401 308.67 40.6268 308.18 40.7668 307.62C40.9068 307.013 40.9768 306.5 40.9768 306.08C41.3034 305.053 41.6068 304.353 41.8868 303.98C42.2134 302.953 42.5634 302.16 42.9368 301.6C42.9834 301.46 43.0301 301.133 43.0768 300.62C43.1701 300.06 43.3334 299.733 43.5668 299.64C43.7068 298.987 43.8234 298.543 43.9168 298.31C44.2434 296.863 44.8501 295.043 45.7368 292.85C46.2034 291.637 46.4368 290.423 46.4368 289.21C46.4368 287.763 46.0868 286.923 45.3868 286.69C44.8734 286.503 44.6168 286.13 44.6168 285.57C44.6168 285.243 44.7101 284.94 44.8968 284.66C45.0834 284.38 45.3401 284.17 45.6668 284.03C46.0401 283.89 46.4134 283.82 46.7868 283.82C47.3001 283.82 47.7668 283.89 48.1868 284.03C48.6534 284.17 48.8634 284.287 48.8168 284.38C48.8168 284.52 48.8401 284.637 48.8868 284.73C48.9334 284.777 49.0268 284.8 49.1668 284.8C49.3068 284.613 49.6568 285.01 50.2168 285.99C50.7768 286.923 51.0568 287.577 51.0568 287.95C50.9634 288.09 50.9168 288.183 50.9168 288.23C50.9634 288.277 51.0568 288.3 51.1968 288.3C51.5234 288.16 52.1301 287.857 53.0168 287.39C53.9501 286.877 54.5334 286.48 54.7668 286.2C54.8601 286.153 55.0234 286.083 55.2568 285.99C55.4901 285.85 55.6768 285.71 55.8168 285.57C56.3301 285.383 56.9134 285.29 57.5668 285.29C58.3134 285.29 59.0368 285.407 59.7368 285.64C60.4368 285.873 61.0201 286.2 61.4868 286.62C62.4668 287.88 62.9568 289.07 62.9568 290.19C62.9568 291.17 62.6301 292.453 61.9768 294.04C61.8834 294.32 61.5801 294.88 61.0668 295.72C60.6001 296.513 60.2734 297.05 60.0868 297.33C59.1068 298.87 57.9401 300.2 56.5868 301.32C55.2334 302.44 53.6701 303.49 51.8968 304.47C51.3834 304.797 50.8468 305.053 50.2868 305.24C49.7734 305.427 49.3301 305.52 48.9568 305.52C48.7701 305.52 48.5834 305.473 48.3968 305.38C47.8834 305.007 47.4168 304.213 46.9968 303C46.3901 304.447 46.0401 305.427 45.9468 305.94C45.9468 306.08 45.9001 306.313 45.8068 306.64C45.7601 306.92 45.6434 307.13 45.4568 307.27C45.4568 307.317 45.4101 307.433 45.3168 307.62C45.2701 307.807 45.1301 308.063 44.8968 308.39C44.1968 310.35 43.7534 311.563 43.5668 312.03C42.7734 314.27 42.3068 315.74 42.1668 316.44C42.0734 317.607 41.8168 318.82 41.3968 320.08C40.9768 321.387 40.6501 322.11 40.4168 322.25ZM48.7468 302.3C49.1668 302.067 50.3101 301.25 52.1768 299.85C54.0434 298.403 55.2101 297.4 55.6768 296.84C56.5634 295.767 57.1701 294.763 57.4968 293.83C57.9634 292.663 58.2901 291.8 58.4768 291.24C58.6168 290.96 58.6868 290.633 58.6868 290.26C58.6868 289.747 58.5468 289.35 58.2668 289.07C57.9868 289.023 57.3568 289.187 56.3768 289.56C55.4434 289.887 54.4168 290.4 53.2968 291.1C52.2234 291.753 51.3134 292.57 50.5668 293.55C49.7268 294.67 49.0501 295.883 48.5368 297.19C48.0701 298.497 47.8368 299.617 47.8368 300.55C47.8368 301.717 48.1401 302.3 48.7468 302.3ZM63.5119 325.61C62.9985 325.423 62.4852 325.003 61.9719 324.35C61.4585 323.743 61.2019 323.23 61.2019 322.81C61.2019 322.11 61.6685 319.8 62.6019 315.88C63.5352 312.007 64.4452 308.857 65.3319 306.43C65.3785 306.243 65.6819 305.473 66.2419 304.12C66.8019 302.767 67.3385 301.133 67.8519 299.22C68.2252 297.867 69.2052 295.23 70.7919 291.31L72.8219 286.27L74.4319 281.86C74.5719 281.487 74.8052 281.16 75.1319 280.88C75.5052 280.553 75.8319 280.343 76.1119 280.25C76.2052 280.203 76.3685 280.18 76.6019 280.18C77.2552 280.18 77.8152 280.553 78.2819 281.3C78.4219 281.58 78.4919 281.86 78.4919 282.14C78.4919 282.607 78.2119 283.517 77.6519 284.87L77.1619 286.27L79.6819 285.71C80.3352 285.71 80.8719 285.733 81.2919 285.78C82.9719 285.78 84.0219 285.827 84.4419 285.92C85.4685 285.967 86.1919 286.153 86.6119 286.48C87.0785 286.807 87.5219 287.32 87.9419 288.02C88.7819 288.813 89.2485 289.513 89.3419 290.12C89.4352 290.68 89.4819 291.123 89.4819 291.45C89.4819 292.943 89.0385 294.483 88.1519 296.07C87.2652 297.61 86.2152 298.777 85.0019 299.57C84.5352 299.757 84.1385 299.943 83.8119 300.13C83.4852 300.317 83.2752 300.433 83.1819 300.48C83.0885 300.853 82.0152 301.46 79.9619 302.3C77.9552 303.093 76.2985 303.583 74.9919 303.77C74.5252 303.863 73.9885 303.91 73.3819 303.91C72.8685 303.91 72.4719 303.84 72.1919 303.7C71.6319 303.607 71.2585 303.56 71.0719 303.56C70.9319 303.56 70.8619 303.653 70.8619 303.84C69.6952 307.293 68.7385 310.443 67.9919 313.29C66.3585 318.237 65.2619 321.457 64.7019 322.95C64.1419 324.49 63.7452 325.377 63.5119 325.61ZM72.2619 299.78C72.3085 299.967 72.5652 300.06 73.0319 300.06C74.0119 300.06 75.5052 299.617 77.5119 298.73C79.5652 297.797 81.1752 296.84 82.3419 295.86C83.3219 294.693 84.0685 293.737 84.5819 292.99C85.1419 292.197 85.4219 291.59 85.4219 291.17C85.4219 290.983 85.3285 290.797 85.1419 290.61C84.6752 289.91 83.8352 289.56 82.6219 289.56C81.0819 289.56 79.2385 290.143 77.0919 291.31C76.1585 291.637 75.4819 292.08 75.0619 292.64C74.6885 293.153 74.3385 293.807 74.0119 294.6C73.6852 295.393 73.4285 296 73.2419 296.42C72.4952 298.193 72.1685 299.313 72.2619 299.78Z" fill="#FDF4F4"/>
</svg>
